<mxfile host="app.diagrams.net" modified="2023-11-11T02:51:20.864Z" agent="Mozilla/5.0 (Windows NT 10.0; Win64; x64) AppleWebKit/537.36 (KHTML, like Gecko) Chrome/119.0.0.0 Safari/537.36" etag="BeTvhn9ls7SLNZSUsvcY" version="22.1.0" type="device">
  <diagram name="Page-1" id="_4TwoXJKwPigP0Xphfec">
    <mxGraphModel dx="1358" dy="566" grid="1" gridSize="10" guides="1" tooltips="1" connect="1" arrows="1" fold="1" page="1" pageScale="1" pageWidth="850" pageHeight="1100" math="0" shadow="0">
      <root>
        <mxCell id="0" />
        <mxCell id="1" parent="0" />
        <mxCell id="zmQciSDolwKxXW2EejeB-1" value=":Player" style="shape=umlLifeline;perimeter=lifelinePerimeter;whiteSpace=wrap;html=1;container=1;dropTarget=0;collapsible=0;recursiveResize=0;outlineConnect=0;portConstraint=eastwest;newEdgeStyle={&quot;curved&quot;:0,&quot;rounded&quot;:0};" vertex="1" parent="1">
          <mxGeometry x="-20" y="140" width="100" height="260" as="geometry" />
        </mxCell>
        <mxCell id="zmQciSDolwKxXW2EejeB-11" value="" style="html=1;points=[[0,0,0,0,5],[0,1,0,0,-5],[1,0,0,0,5],[1,1,0,0,-5]];perimeter=orthogonalPerimeter;outlineConnect=0;targetShapes=umlLifeline;portConstraint=eastwest;newEdgeStyle={&quot;curved&quot;:0,&quot;rounded&quot;:0};" vertex="1" parent="zmQciSDolwKxXW2EejeB-1">
          <mxGeometry x="45" y="70" width="15" height="160" as="geometry" />
        </mxCell>
        <mxCell id="zmQciSDolwKxXW2EejeB-2" value=":PlayerDeathMessageBus" style="shape=umlLifeline;perimeter=lifelinePerimeter;whiteSpace=wrap;html=1;container=1;dropTarget=0;collapsible=0;recursiveResize=0;outlineConnect=0;portConstraint=eastwest;newEdgeStyle={&quot;curved&quot;:0,&quot;rounded&quot;:0};" vertex="1" parent="1">
          <mxGeometry x="150" y="200" width="170" height="200" as="geometry" />
        </mxCell>
        <mxCell id="zmQciSDolwKxXW2EejeB-18" value="" style="html=1;points=[[0,0,0,0,5],[0,1,0,0,-5],[1,0,0,0,5],[1,1,0,0,-5]];perimeter=orthogonalPerimeter;outlineConnect=0;targetShapes=umlLifeline;portConstraint=eastwest;newEdgeStyle={&quot;curved&quot;:0,&quot;rounded&quot;:0};" vertex="1" parent="zmQciSDolwKxXW2EejeB-2">
          <mxGeometry x="77.5" y="75" width="15" height="95" as="geometry" />
        </mxCell>
        <mxCell id="zmQciSDolwKxXW2EejeB-3" value=":Gate" style="shape=umlLifeline;perimeter=lifelinePerimeter;whiteSpace=wrap;html=1;container=1;dropTarget=0;collapsible=0;recursiveResize=0;outlineConnect=0;portConstraint=eastwest;newEdgeStyle={&quot;curved&quot;:0,&quot;rounded&quot;:0};" vertex="1" parent="1">
          <mxGeometry x="370" y="140" width="100" height="260" as="geometry" />
        </mxCell>
        <mxCell id="zmQciSDolwKxXW2EejeB-23" value="" style="html=1;points=[[0,0,0,0,5],[0,1,0,0,-5],[1,0,0,0,5],[1,1,0,0,-5]];perimeter=orthogonalPerimeter;outlineConnect=0;targetShapes=umlLifeline;portConstraint=eastwest;newEdgeStyle={&quot;curved&quot;:0,&quot;rounded&quot;:0};" vertex="1" parent="zmQciSDolwKxXW2EejeB-3">
          <mxGeometry x="45" y="155" width="10" height="75" as="geometry" />
        </mxCell>
        <mxCell id="zmQciSDolwKxXW2EejeB-7" value="" style="endArrow=block;endFill=1;html=1;edgeStyle=orthogonalEdgeStyle;align=left;verticalAlign=top;rounded=0;" edge="1" parent="1">
          <mxGeometry x="-1" relative="1" as="geometry">
            <mxPoint x="40" y="220" as="sourcePoint" />
            <mxPoint x="150" y="220" as="targetPoint" />
          </mxGeometry>
        </mxCell>
        <mxCell id="zmQciSDolwKxXW2EejeB-10" value="«create»" style="text;html=1;align=center;verticalAlign=middle;resizable=0;points=[];autosize=1;strokeColor=none;fillColor=none;" vertex="1" parent="1">
          <mxGeometry x="60" y="190" width="70" height="30" as="geometry" />
        </mxCell>
        <mxCell id="zmQciSDolwKxXW2EejeB-16" value="" style="endArrow=block;endFill=1;html=1;edgeStyle=orthogonalEdgeStyle;align=left;verticalAlign=top;rounded=0;entryX=0;entryY=0;entryDx=0;entryDy=5;entryPerimeter=0;" edge="1" parent="1" source="zmQciSDolwKxXW2EejeB-11" target="zmQciSDolwKxXW2EejeB-18">
          <mxGeometry x="-1" relative="1" as="geometry">
            <mxPoint x="45" y="280" as="sourcePoint" />
            <mxPoint x="145" y="290" as="targetPoint" />
            <Array as="points">
              <mxPoint x="90" y="280" />
              <mxPoint x="90" y="280" />
            </Array>
          </mxGeometry>
        </mxCell>
        <mxCell id="zmQciSDolwKxXW2EejeB-21" value="if(!isConscious)" style="text;html=1;align=center;verticalAlign=middle;resizable=0;points=[];autosize=1;strokeColor=none;fillColor=none;" vertex="1" parent="1">
          <mxGeometry x="70" y="250" width="110" height="30" as="geometry" />
        </mxCell>
        <mxCell id="zmQciSDolwKxXW2EejeB-22" value="" style="endArrow=block;endFill=1;html=1;edgeStyle=orthogonalEdgeStyle;align=left;verticalAlign=top;rounded=0;" edge="1" parent="1" target="zmQciSDolwKxXW2EejeB-23">
          <mxGeometry x="-1" relative="1" as="geometry">
            <mxPoint x="240" y="300" as="sourcePoint" />
            <mxPoint x="350" y="300" as="targetPoint" />
            <Array as="points">
              <mxPoint x="290" y="300" />
              <mxPoint x="290" y="300" />
            </Array>
          </mxGeometry>
        </mxCell>
        <mxCell id="zmQciSDolwKxXW2EejeB-24" value="publishDeath()" style="text;html=1;align=center;verticalAlign=middle;resizable=0;points=[];autosize=1;strokeColor=none;fillColor=none;" vertex="1" parent="1">
          <mxGeometry x="280" y="270" width="100" height="30" as="geometry" />
        </mxCell>
        <mxCell id="zmQciSDolwKxXW2EejeB-26" value="notifyDeath()" style="html=1;align=left;spacingLeft=2;endArrow=block;rounded=0;edgeStyle=orthogonalEdgeStyle;curved=0;rounded=0;" edge="1" parent="1">
          <mxGeometry relative="1" as="geometry">
            <mxPoint x="425" y="330" as="sourcePoint" />
            <Array as="points">
              <mxPoint x="455" y="360" />
            </Array>
            <mxPoint x="430" y="360" as="targetPoint" />
          </mxGeometry>
        </mxCell>
      </root>
    </mxGraphModel>
  </diagram>
</mxfile>
